<svg xmlns="http://www.w3.org/2000/svg" viewBox="0 0 512 512">
  <!-- Maskable: full-bleed background; key art inside the safe zone (centered 80%). -->
  <rect width="512" height="512" fill="#1e293b"/>
  <g transform="translate(51 51) scale(0.8)">
    <rect width="512" height="512" rx="96" fill="#1e293b"/>
    <path d="M256 96 L96 232 L96 416 L208 416 L208 312 L304 312 L304 416 L416 416 L416 232 Z"
          fill="#38bdf8" opacity="0.18"/>
    <path d="M64 248 L256 88 L448 248"
          fill="none" stroke="#38bdf8" stroke-width="22"
          stroke-linecap="round" stroke-linejoin="round"/>
    <g transform="translate(150 200)" fill="none" stroke="#f1f5f9" stroke-width="18"
       stroke-linecap="round" stroke-linejoin="round">
      <path d="M30 60 L70 60 L96 168 L196 168 L212 84 L80 84"/>
      <path d="M0 30 L30 30 L36 60"/>
      <circle cx="112" cy="200" r="14" fill="#f1f5f9"/>
      <circle cx="180" cy="200" r="14" fill="#f1f5f9"/>
    </g>
    <circle cx="372" cy="168" r="22" fill="#4ade80"/>
  </g>
</svg>
